<?xml version="1.0" encoding="UTF-8"?>
<svg width="171px" height="84px" viewBox="0 0 171 84" version="1.1" xmlns="http://www.w3.org/2000/svg" xmlns:xlink="http://www.w3.org/1999/xlink">
    <title>CD148000-DC0D-4686-B15A-A03D0FBE47DC</title>
    <g id="Artwork" stroke="none" stroke-width="1" fill="none" fill-rule="evenodd">
        <g id="Home" transform="translate(-380.000000, -49.000000)" fill="#007B3F" fill-rule="nonzero">
            <g id="Header" transform="translate(-1.000000, 0.000000)">
                <g id="Navigation" transform="translate(381.000000, 49.000000)">
                    <g id="Credit-Hound-Logo" transform="translate(0.000000, 0.000000)">
                        <g id="Group">
                            <path d="M42,30.4242549 L41.68,29.6442549 L41.63,29.5242549 L41.25,28.6242549 C41.0252278,28.1069215 40.5324622,27.7565959 39.97,27.7142549 L37.21,27.7142549 L37.59,28.6142549 L37.59,28.6142549 L38.34,30.4242549 C38.5659548,30.9346985 39.0535209,31.2802178 39.61,31.3242549 L42.33,31.3242549 L41.95,30.4242549 L42,30.4242549 Z" id="Path"></path>
                            <path d="M28.53,31.3342549 C29.25,28.6675883 30.07,26.0409216 30.99,23.4542549 L29.32,19.4542549 C28.8019279,23.3931916 28.5380485,27.3614026 28.53,31.3342549 L28.53,31.3342549 Z" id="Path"></path>
                            <path d="M71.19,19.0042549 L39.28,0.584254939 C37.7360296,-0.194751646 35.9139704,-0.194751646 34.37,0.584254939 L2.45,19.0042549 C1.00313863,19.954584 0.0937839781,21.5357476 0,23.2642549 L0,60.1142549 C0.0968879902,61.8391669 1.00587689,63.4159844 2.45,64.3642549 L34.37,82.7942549 C35.9139704,83.5732615 37.7360296,83.5732615 39.28,82.7942549 L71.19,64.3642549 C72.6379314,63.4181977 73.5508423,61.8410142 73.65,60.1142549 L73.65,23.2642549 C73.5539481,21.5338983 72.6406698,19.9523675 71.19,19.0042549 Z M30.12,52.5242549 C26.0013954,50.5797289 21.7588235,48.909425 17.42,47.5242549 C24.1846375,48.5195462 30.8316202,50.194693 37.26,52.5242549 C40.26,53.6242549 43.26,54.8842549 46.16,56.2642549 L49.62,64.6842549 C43.5961756,59.9130513 37.0551075,55.8341082 30.12,52.5242549 L30.12,52.5242549 Z M57.84,35.1742549 L57,36.5742549 L53.53,42.5742549 C52.3894733,44.5497067 50.2810541,45.7659557 48,45.7642549 L43.7,45.7642549 C43.5315702,45.7639638 43.3648467,45.797989 43.21,45.8642549 C42.6551573,46.0907877 42.3341906,46.6743636 42.44,47.2642549 L45.31,54.2642549 C42.8233333,53.1309216 40.29,52.0942549 37.71,51.1542549 C30.5090137,48.5347637 23.0402048,46.7203831 15.44,45.7442549 L24.1,24.8542549 L28.62,14.0042549 L29.32,15.6742549 L32.54,23.4642549 L32.63,23.6842549 L37.71,23.6842549 C40.54,23.6842549 42.83,27.5242549 42.83,27.5242549 C42.83,27.5242549 45.12,31.3642549 47.95,31.3642549 L55.62,31.3642549 C56.5359795,31.3605278 57.3835857,31.8483713 57.8404895,32.6422675 C58.2973933,33.4361637 58.2933893,34.4141267 57.83,35.2042549 L57.84,35.1742549 Z" id="Shape"></path>
                        </g>
                        <g id="Group" transform="translate(85.760000, 20.274255)">
                            <g transform="translate(0.000000, -0.000000)">
                                <path d="M9.11,4.86 C8.62396788,3.8395097 7.5684453,3.21489334 6.44,3.28 C4.25,3.28 3,5.2 3,7.9 C3,10.6 4.24,12.53 6.46,12.53 C7.70016416,12.5499525 8.82970532,11.8193052 9.32,10.68 L11.78,12.14 C10.8372746,14.2511206 8.68836898,15.5603612 6.38,15.43 C2.57,15.43 0,12.51 0,7.9 C0,3.46 2.67,0.38 6.48,0.38 C8.75411394,0.24904763 10.8736236,1.53347842 11.81,3.61 L9.11,4.86 Z" id="Path"></path>
                                <path d="M20.66,7.61 C20.216088,7.17233568 19.6231034,6.91870973 19,6.9 C17.87,6.9 17.14,7.38 17.14,9.27 L17.14,15.19 L14.24,15.19 L14.24,4.26 L17.12,4.26 L17.12,4.99 C17.6923567,4.35006723 18.5114604,3.98602114 19.37,3.99 C20.1122091,3.97238286 20.8312293,4.24920563 21.37,4.76 L20.66,7.61 Z" id="Path"></path>
                                <path d="M31.75,10.66 L25.24,10.66 C25.2501696,11.2303978 25.4908757,11.7723697 25.9072445,12.1623622 C26.3236132,12.5523546 26.8801569,12.757128 27.45,12.73 C28.1588036,12.7588262 28.8450611,12.4777527 29.33,11.96 L31.33,13.67 C30.3473551,14.8079577 28.9134297,15.4554189 27.41,15.44 C24.27,15.44 22.26,13.21 22.26,9.75 C22.26,6.29 24.37,4.04 27.14,4.04 C29.91,4.04 31.74,6.62 31.74,9.75 C31.79,10.16 31.77,10.45 31.75,10.66 Z M27.04,6.53 C25.9939617,6.58911531 25.1931884,7.48383407 25.25,8.53 L29,8.53 C29.0002178,7.44086477 28.1289174,6.55178268 27.04,6.53 Z" id="Shape"></path>
                                <path d="M40.09,15.2 L40.09,14.51 C39.4659738,15.1007734 38.6393148,15.43 37.78,15.43 C35.45,15.43 33.53,13.68 33.53,9.59 C33.53,6.32 35.07,4.02 37.78,4.02 C38.6294642,4.01337417 39.4516807,4.31948074 40.09,4.88 L40.09,1.44 L42.97,3.55271368e-15 L42.97,15.2 L40.09,15.2 Z M40.09,7.68 C39.641655,7.06143685 38.9133106,6.70852772 38.15,6.74 C37.04,6.74 36.44,7.74 36.44,9.53 C36.44,11.78 37.19,12.72 38.32,12.72 C39.0317436,12.7504543 39.705958,12.4000152 40.09,11.8 L40.09,7.68 Z" id="Shape"></path>
                                <path d="M47.34,3.36 C46.6708278,3.35995084 46.0679513,2.95574282 45.813779,2.33672117 C45.5596067,1.71769952 45.7044782,1.00646366 46.1805308,0.536181453 C46.6565833,0.0658992416 47.3695329,-0.0702882683 47.985409,0.191413933 C48.6012851,0.453116135 48.9981112,1.060877 48.99,1.73 C48.9685238,2.62894108 48.2391361,3.34948767 47.34,3.36 L47.34,3.36 Z M45.9,15.2 L45.9,4.26 L48.78,4.26 L48.78,15.2 L45.9,15.2 Z" id="Shape"></path>
                                <path d="M57.78,14.73 C57.1250909,15.1811832 56.3451298,15.4155213 55.55,15.4 C53.78,15.4 52.63,14.02 52.63,12.11 L52.63,6.97 L50.8,6.97 L50.8,4.26 L52.63,4.26 L52.63,1.44 L55.51,3.55271368e-15 L55.51,4.25 L58.14,4.25 L58.14,6.96 L55.51,6.96 L55.51,11.36 C55.51,12.36 55.88,12.67 56.57,12.67 C57.09,12.67 57.49,12.44 58.19,11.84 L57.78,14.73 Z" id="Path"></path>
                            </g>
                            <g transform="translate(1.610000, 20.260000)">
                                <polygon id="Path" points="12.85 21.96 12.85 13.11 4.21 13.11 4.21 21.96 -1.42108547e-14 21.96 -1.42108547e-14 0.88 4.21 0.88 4.21 8.95 12.85 8.95 12.85 0.88 17.07 0.88 17.07 21.96"></polygon>
                                <path d="M27.36,22.29 C23.24,22.29 20.22,18.92 20.22,14.07 C20.22,9.22 23.22,5.82 27.36,5.82 C31.5,5.82 34.53,9.22 34.53,14.07 C34.53,18.92 31.49,22.29 27.36,22.29 Z M27.36,9.82 C25.36,9.82 24.44,11.63 24.44,14.07 C24.44,16.51 25.37,18.28 27.36,18.28 C29.35,18.28 30.36,16.28 30.36,14.07 C30.32,11.66 29.35,9.82 27.36,9.82 Z" id="Shape"></path>
                                <path d="M46.39,21.96 L46.39,20.9 C45.389446,21.8350969 44.0587545,22.3350053 42.69,22.29 C38.69,22.29 36.85,19.52 36.85,15.06 L36.85,6.15 L41,6.15 L41,14.7 C41,17.53 42,18.37 43.68,18.37 C45.36,18.37 46.39,17.53 46.39,14.79 L46.39,6.15 L50.55,6.15 L50.55,21.96 L46.39,21.96 Z" id="Path"></path>
                                <path d="M63.37,21.96 L63.37,13.41 C63.37,10.58 62.37,9.73 60.69,9.73 C59.01,9.73 57.98,10.57 57.98,13.32 L57.98,21.96 L53.83,21.96 L53.83,6.15 L57.98,6.15 L57.98,7.21 C58.980554,6.27490308 60.3112455,5.77499466 61.68,5.82 C65.68,5.82 67.52,8.59 67.52,13.05 L67.52,21.96 L63.37,21.96 Z" id="Path"></path>
                                <path d="M79.33,21.96 L79.33,20.96 C78.4254859,21.8094367 77.2308409,22.2815719 75.99,22.2800039 C72.62,22.2800039 69.85,19.75 69.85,13.85 C69.85,9.12 72.08,5.85 75.99,5.85 C77.2165156,5.8364395 78.4052256,6.27419798 79.33,7.08 L79.33,2.08 L83.48,0 L83.48,21.96 L79.33,21.96 Z M79.33,11.09 C78.6825356,10.1972963 77.6319446,9.68700918 76.53,9.73 C74.94,9.73 74.06,11.12 74.06,13.73 C74.06,16.98 75.15,18.34 76.77,18.34 C77.7965211,18.3827716 78.7695214,17.8810683 79.33,17.02 L79.33,11.09 Z" id="Shape"></path>
                            </g>
                        </g>
                    </g>
                </g>
            </g>
        </g>
    </g>
</svg>